{
    "asset" : {
        "generator" : "Khronos glTF Blender I/O v1.2.75",
        "version" : "2.0"
    },
    "scene" : 0,
    "scenes" : [
        {
            "name" : "Scene",
            "nodes" : [
                0
            ]
        }
    ],
    "nodes" : [
        {
            "mesh" : 0,
            "name" : "Ayam"
        }
    ],
    "materials" : [
        {
            "doubleSided" : true,
            "emissiveFactor" : [
                0,
                0,
                0
            ],
            "name" : "oren",
            "pbrMetallicRoughness" : {
                "baseColorFactor" : [
                    1,
                    0.3814912736415863,
                    0.03898348659276962,
                    1
                ],
                "metallicFactor" : 0,
                "roughnessFactor" : 0.4000000059604645
            }
        },
        {
            "doubleSided" : true,
            "emissiveFactor" : [
                0,
                0,
                0
            ],
            "name" : "putih",
            "pbrMetallicRoughness" : {
                "baseColorFactor" : [
                    1,
                    0.9629387259483337,
                    0.946761965751648,
                    1
                ],
                "metallicFactor" : 0,
                "roughnessFactor" : 0.4000000059604645
            }
        },
        {
            "doubleSided" : true,
            "emissiveFactor" : [
                0,
                0,
                0
            ],
            "name" : "merah",
            "pbrMetallicRoughness" : {
                "baseColorFactor" : [
                    1,
                    0.005076388828456402,
                    0,
                    1
                ],
                "metallicFactor" : 0,
                "roughnessFactor" : 0.4000000059604645
            }
        },
        {
            "doubleSided" : true,
            "emissiveFactor" : [
                0,
                0,
                0
            ],
            "name" : "item",
            "pbrMetallicRoughness" : {
                "baseColorFactor" : [
                    0,
                    0,
                    0,
                    1
                ],
                "metallicFactor" : 0,
                "roughnessFactor" : 0.4000000059604645
            }
        }
    ],
    "meshes" : [
        {
            "name" : "Cube",
            "primitives" : [
                {
                    "attributes" : {
                        "POSITION" : 0,
                        "NORMAL" : 1,
                        "TEXCOORD_0" : 2
                    },
                    "indices" : 3,
                    "material" : 0
                },
                {
                    "attributes" : {
                        "POSITION" : 4,
                        "NORMAL" : 5,
                        "TEXCOORD_0" : 6
                    },
                    "indices" : 7,
                    "material" : 1
                },
                {
                    "attributes" : {
                        "POSITION" : 8,
                        "NORMAL" : 9,
                        "TEXCOORD_0" : 10
                    },
                    "indices" : 11,
                    "material" : 2
                },
                {
                    "attributes" : {
                        "POSITION" : 12,
                        "NORMAL" : 13,
                        "TEXCOORD_0" : 14
                    },
                    "indices" : 15,
                    "material" : 3
                }
            ]
        }
    ],
    "accessors" : [
        {
            "bufferView" : 0,
            "componentType" : 5126,
            "count" : 106,
            "max" : [
                0.5583619475364685,
                2.3812596797943115,
                1.2943934202194214
            ],
            "min" : [
                -0.5516718626022339,
                0.06109023094177246,
                -0.6691226959228516
            ],
            "type" : "VEC3"
        },
        {
            "bufferView" : 1,
            "componentType" : 5126,
            "count" : 106,
            "type" : "VEC3"
        },
        {
            "bufferView" : 2,
            "componentType" : 5126,
            "count" : 106,
            "type" : "VEC2"
        },
        {
            "bufferView" : 3,
            "componentType" : 5123,
            "count" : 162,
            "type" : "SCALAR"
        },
        {
            "bufferView" : 4,
            "componentType" : 5126,
            "count" : 114,
            "max" : [
                0.8008302450180054,
                2.6412405967712402,
                0.9676305651664734
            ],
            "min" : [
                -0.794140100479126,
                0.6051151752471924,
                -1.5066986083984375
            ],
            "type" : "VEC3"
        },
        {
            "bufferView" : 5,
            "componentType" : 5126,
            "count" : 114,
            "type" : "VEC3"
        },
        {
            "bufferView" : 6,
            "componentType" : 5126,
            "count" : 114,
            "type" : "VEC2"
        },
        {
            "bufferView" : 7,
            "componentType" : 5123,
            "count" : 180,
            "type" : "SCALAR"
        },
        {
            "bufferView" : 8,
            "componentType" : 5126,
            "count" : 36,
            "max" : [
                0.14444760978221893,
                2.83221435546875,
                1.1353741884231567
            ],
            "min" : [
                -0.14115069806575775,
                1.8892109394073486,
                0.10385692119598389
            ],
            "type" : "VEC3"
        },
        {
            "bufferView" : 9,
            "componentType" : 5126,
            "count" : 36,
            "type" : "VEC3"
        },
        {
            "bufferView" : 10,
            "componentType" : 5126,
            "count" : 36,
            "type" : "VEC2"
        },
        {
            "bufferView" : 11,
            "componentType" : 5123,
            "count" : 54,
            "type" : "SCALAR"
        },
        {
            "bufferView" : 12,
            "componentType" : 5126,
            "count" : 40,
            "max" : [
                0.6489485502243042,
                2.3812596797943115,
                0.6394152641296387
            ],
            "min" : [
                -0.6484844088554382,
                2.178687810897827,
                0.4368433952331543
            ],
            "type" : "VEC3"
        },
        {
            "bufferView" : 13,
            "componentType" : 5126,
            "count" : 40,
            "type" : "VEC3"
        },
        {
            "bufferView" : 14,
            "componentType" : 5126,
            "count" : 40,
            "type" : "VEC2"
        },
        {
            "bufferView" : 15,
            "componentType" : 5123,
            "count" : 60,
            "type" : "SCALAR"
        }
    ],
    "bufferViews" : [
        {
            "buffer" : 0,
            "byteLength" : 1272,
            "byteOffset" : 0
        },
        {
            "buffer" : 0,
            "byteLength" : 1272,
            "byteOffset" : 1272
        },
        {
            "buffer" : 0,
            "byteLength" : 848,
            "byteOffset" : 2544
        },
        {
            "buffer" : 0,
            "byteLength" : 324,
            "byteOffset" : 3392
        },
        {
            "buffer" : 0,
            "byteLength" : 1368,
            "byteOffset" : 3716
        },
        {
            "buffer" : 0,
            "byteLength" : 1368,
            "byteOffset" : 5084
        },
        {
            "buffer" : 0,
            "byteLength" : 912,
            "byteOffset" : 6452
        },
        {
            "buffer" : 0,
            "byteLength" : 360,
            "byteOffset" : 7364
        },
        {
            "buffer" : 0,
            "byteLength" : 432,
            "byteOffset" : 7724
        },
        {
            "buffer" : 0,
            "byteLength" : 432,
            "byteOffset" : 8156
        },
        {
            "buffer" : 0,
            "byteLength" : 288,
            "byteOffset" : 8588
        },
        {
            "buffer" : 0,
            "byteLength" : 108,
            "byteOffset" : 8876
        },
        {
            "buffer" : 0,
            "byteLength" : 480,
            "byteOffset" : 8984
        },
        {
            "buffer" : 0,
            "byteLength" : 480,
            "byteOffset" : 9464
        },
        {
            "buffer" : 0,
            "byteLength" : 320,
            "byteOffset" : 9944
        },
        {
            "buffer" : 0,
            "byteLength" : 120,
            "byteOffset" : 10264
        }
    ],
    "buffers" : [
        {
            "byteLength" : 10384,
            "uri" : "data:application/octet-stream;base64,"
        }
    ]
}
