{
    "asset" : {
        "generator" : "Khronos glTF Blender I/O v1.3.48",
        "version" : "2.0"
    },
    "scene" : 0,
    "scenes" : [
        {
            "name" : "Grass",
            "nodes" : [
                0
            ]
        }
    ],
    "nodes" : [
        {
            "mesh" : 0,
            "name" : "Plane.532",
            "rotation" : [
                0.7023746371269226,
                0.08167003840208054,
                -0.08167003840208054,
                0.7023744583129883
            ],
            "scale" : [
                0.14749771356582642,
                1.153898000717163,
                1.153898000717163
            ],
            "translation" : [
                -5.742823600769043,
                0,
                -5.335001468658447
            ]
        }
    ],
    "materials" : [
        {
            "doubleSided" : true,
            "emissiveFactor" : [
                0,
                0,
                0
            ],
            "name" : "Material.002",
            "pbrMetallicRoughness" : {
                "baseColorFactor" : [
                    0.125,
                    0.5,
                    0.04500000178813934,
                    1
                ],
                "metallicFactor" : 0,
                "roughnessFactor" : 0
            }
        }
    ],
    "meshes" : [
        {
            "name" : "Plane",
            "primitives" : [
                {
                    "attributes" : {
                        "POSITION" : 0,
                        "NORMAL" : 1,
                        "TEXCOORD_0" : 2
                    },
                    "indices" : 3,
                    "material" : 0
                }
            ]
        }
    ],
    "accessors" : [
        {
            "bufferView" : 0,
            "componentType" : 5126,
            "count" : 59988,
            "max" : [
                93.04460144042969,
                14.174039840698242,
                0.01655477099120617
            ],
            "min" : [
                -37.92084884643555,
                -3.2106473445892334,
                -1.9871833324432373
            ],
            "type" : "VEC3"
        },
        {
            "bufferView" : 1,
            "componentType" : 5126,
            "count" : 59988,
            "type" : "VEC3"
        },
        {
            "bufferView" : 2,
            "componentType" : 5126,
            "count" : 59988,
            "type" : "VEC2"
        },
        {
            "bufferView" : 3,
            "componentType" : 5123,
            "count" : 90000,
            "type" : "SCALAR"
        }
    ],
    "bufferViews" : [
        {
            "buffer" : 0,
            "byteLength" : 719856,
            "byteOffset" : 0
        },
        {
            "buffer" : 0,
            "byteLength" : 719856,
            "byteOffset" : 719856
        },
        {
            "buffer" : 0,
            "byteLength" : 479904,
            "byteOffset" : 1439712
        },
        {
            "buffer" : 0,
            "byteLength" : 180000,
            "byteOffset" : 1919616
        }
    ],
    "buffers" : [
        {
            "byteLength" : 2099616,
            "uri" : "data:application/octet-stream;base64,"
        }
    ]
}
