{
    "asset" : {
        "generator" : "Khronos glTF Blender I/O v1.2.75",
        "version" : "2.0"
    },
    "scene" : 0,
    "scenes" : [
        {
            "name" : "Scene",
            "nodes" : [
                0
            ]
        }
    ],
    "nodes" : [
        {
            "mesh" : 0,
            "name" : "Jagung",
            "translation" : [
                0,
                1.0237220525741577,
                0
            ]
        }
    ],
    "materials" : [
        {
            "doubleSided" : true,
            "emissiveFactor" : [
                0,
                0,
                0
            ],
            "name" : "daging",
            "pbrMetallicRoughness" : {
                "baseColorFactor" : [
                    1,
                    0.8243504166603088,
                    0,
                    1
                ],
                "metallicFactor" : 0,
                "roughnessFactor" : 0.5
            }
        },
        {
            "doubleSided" : true,
            "emissiveFactor" : [
                0,
                0,
                0
            ],
            "name" : "daun",
            "pbrMetallicRoughness" : {
                "baseColorFactor" : [
                    0,
                    0.13461951911449432,
                    0.0026511128526180983,
                    1
                ],
                "metallicFactor" : 0,
                "roughnessFactor" : 0.5
            }
        }
    ],
    "meshes" : [
        {
            "name" : "Cylinder",
            "primitives" : [
                {
                    "attributes" : {
                        "POSITION" : 0,
                        "NORMAL" : 1,
                        "TEXCOORD_0" : 2
                    },
                    "indices" : 3,
                    "material" : 0
                },
                {
                    "attributes" : {
                        "POSITION" : 4,
                        "NORMAL" : 5,
                        "TEXCOORD_0" : 6
                    },
                    "indices" : 7,
                    "material" : 1
                }
            ]
        }
    ],
    "accessors" : [
        {
            "bufferView" : 0,
            "componentType" : 5126,
            "count" : 72,
            "max" : [
                0.30000001192092896,
                0.912989616394043,
                0.30000001192092896
            ],
            "min" : [
                -0.30000001192092896,
                -0.13572049140930176,
                -0.30000001192092896
            ],
            "type" : "VEC3"
        },
        {
            "bufferView" : 1,
            "componentType" : 5126,
            "count" : 72,
            "type" : "VEC3"
        },
        {
            "bufferView" : 2,
            "componentType" : 5126,
            "count" : 72,
            "type" : "VEC2"
        },
        {
            "bufferView" : 3,
            "componentType" : 5123,
            "count" : 114,
            "type" : "SCALAR"
        },
        {
            "bufferView" : 4,
            "componentType" : 5126,
            "count" : 256,
            "max" : [
                0.38480469584465027,
                0.9173780679702759,
                0.47078144550323486
            ],
            "min" : [
                -0.3933079242706299,
                -0.6312105655670166,
                -0.46804386377334595
            ],
            "type" : "VEC3"
        },
        {
            "bufferView" : 5,
            "componentType" : 5126,
            "count" : 256,
            "type" : "VEC3"
        },
        {
            "bufferView" : 6,
            "componentType" : 5126,
            "count" : 256,
            "type" : "VEC2"
        },
        {
            "bufferView" : 7,
            "componentType" : 5123,
            "count" : 402,
            "type" : "SCALAR"
        }
    ],
    "bufferViews" : [
        {
            "buffer" : 0,
            "byteLength" : 864,
            "byteOffset" : 0
        },
        {
            "buffer" : 0,
            "byteLength" : 864,
            "byteOffset" : 864
        },
        {
            "buffer" : 0,
            "byteLength" : 576,
            "byteOffset" : 1728
        },
        {
            "buffer" : 0,
            "byteLength" : 228,
            "byteOffset" : 2304
        },
        {
            "buffer" : 0,
            "byteLength" : 3072,
            "byteOffset" : 2532
        },
        {
            "buffer" : 0,
            "byteLength" : 3072,
            "byteOffset" : 5604
        },
        {
            "buffer" : 0,
            "byteLength" : 2048,
            "byteOffset" : 8676
        },
        {
            "buffer" : 0,
            "byteLength" : 804,
            "byteOffset" : 10724
        }
    ],
    "buffers" : [
        {
            "byteLength" : 11528,
            "uri" : "data:application/octet-stream;base64,"
        }
    ]
}
