{
    "asset" : {
        "generator" : "Khronos glTF Blender I/O v1.2.75",
        "version" : "2.0"
    },
    "scene" : 0,
    "scenes" : [
        {
            "name" : "Scene",
            "nodes" : [
                0
            ]
        }
    ],
    "nodes" : [
        {
            "mesh" : 0,
            "name" : "Cube",
            "translation" : [
                0,
                0.9967867732048035,
                0
            ]
        }
    ],
    "materials" : [
        {
            "doubleSided" : true,
            "emissiveFactor" : [
                0,
                0,
                0
            ],
            "name" : "Batang",
            "pbrMetallicRoughness" : {
                "baseColorFactor" : [
                    0.003391956677660346,
                    0.14635229110717773,
                    0,
                    1
                ],
                "metallicFactor" : 0,
                "roughnessFactor" : 1
            }
        },
        {
            "doubleSided" : true,
            "emissiveFactor" : [
                0,
                0,
                0
            ],
            "name" : "pot",
            "pbrMetallicRoughness" : {
                "baseColorFactor" : [
                    0.11284926533699036,
                    0.04598550498485565,
                    0.026104681193828583,
                    1
                ],
                "metallicFactor" : 0,
                "roughnessFactor" : 1
            }
        },
        {
            "doubleSided" : true,
            "emissiveFactor" : [
                0,
                0,
                0
            ],
            "name" : "tanah",
            "pbrMetallicRoughness" : {
                "baseColorFactor" : [
                    0.02820797637104988,
                    0.002507796511054039,
                    0,
                    1
                ],
                "metallicFactor" : 0,
                "roughnessFactor" : 1
            }
        }
    ],
    "meshes" : [
        {
            "name" : "Cube",
            "primitives" : [
                {
                    "attributes" : {
                        "POSITION" : 0,
                        "NORMAL" : 1,
                        "TEXCOORD_0" : 2
                    },
                    "indices" : 3,
                    "material" : 0
                },
                {
                    "attributes" : {
                        "POSITION" : 4,
                        "NORMAL" : 5,
                        "TEXCOORD_0" : 6
                    },
                    "indices" : 7,
                    "material" : 1
                },
                {
                    "attributes" : {
                        "POSITION" : 8,
                        "NORMAL" : 9,
                        "TEXCOORD_0" : 10
                    },
                    "indices" : 11,
                    "material" : 2
                }
            ]
        }
    ],
    "accessors" : [
        {
            "bufferView" : 0,
            "componentType" : 5126,
            "count" : 163,
            "max" : [
                0.78440260887146,
                8.014610290527344,
                2.567537784576416
            ],
            "min" : [
                -0.78440260887146,
                0.48382508754730225,
                -2.5145764350891113
            ],
            "type" : "VEC3"
        },
        {
            "bufferView" : 1,
            "componentType" : 5126,
            "count" : 163,
            "type" : "VEC3"
        },
        {
            "bufferView" : 2,
            "componentType" : 5126,
            "count" : 163,
            "type" : "VEC2"
        },
        {
            "bufferView" : 3,
            "componentType" : 5123,
            "count" : 294,
            "type" : "SCALAR"
        },
        {
            "bufferView" : 4,
            "componentType" : 5126,
            "count" : 52,
            "max" : [
                1.6099053621292114,
                1,
                1.6099053621292114
            ],
            "min" : [
                -1.6099053621292114,
                -1,
                -1.6099053621292114
            ],
            "type" : "VEC3"
        },
        {
            "bufferView" : 5,
            "componentType" : 5126,
            "count" : 52,
            "type" : "VEC3"
        },
        {
            "bufferView" : 6,
            "componentType" : 5126,
            "count" : 52,
            "type" : "VEC2"
        },
        {
            "bufferView" : 7,
            "componentType" : 5123,
            "count" : 78,
            "type" : "SCALAR"
        },
        {
            "bufferView" : 8,
            "componentType" : 5126,
            "count" : 16,
            "max" : [
                1.1636468172073364,
                0.48382508754730225,
                1.1636468172073364
            ],
            "min" : [
                -1.1636468172073364,
                0.48382508754730225,
                -1.1636468172073364
            ],
            "type" : "VEC3"
        },
        {
            "bufferView" : 9,
            "componentType" : 5126,
            "count" : 16,
            "type" : "VEC3"
        },
        {
            "bufferView" : 10,
            "componentType" : 5126,
            "count" : 16,
            "type" : "VEC2"
        },
        {
            "bufferView" : 11,
            "componentType" : 5123,
            "count" : 24,
            "type" : "SCALAR"
        }
    ],
    "bufferViews" : [
        {
            "buffer" : 0,
            "byteLength" : 1956,
            "byteOffset" : 0
        },
        {
            "buffer" : 0,
            "byteLength" : 1956,
            "byteOffset" : 1956
        },
        {
            "buffer" : 0,
            "byteLength" : 1304,
            "byteOffset" : 3912
        },
        {
            "buffer" : 0,
            "byteLength" : 588,
            "byteOffset" : 5216
        },
        {
            "buffer" : 0,
            "byteLength" : 624,
            "byteOffset" : 5804
        },
        {
            "buffer" : 0,
            "byteLength" : 624,
            "byteOffset" : 6428
        },
        {
            "buffer" : 0,
            "byteLength" : 416,
            "byteOffset" : 7052
        },
        {
            "buffer" : 0,
            "byteLength" : 156,
            "byteOffset" : 7468
        },
        {
            "buffer" : 0,
            "byteLength" : 192,
            "byteOffset" : 7624
        },
        {
            "buffer" : 0,
            "byteLength" : 192,
            "byteOffset" : 7816
        },
        {
            "buffer" : 0,
            "byteLength" : 128,
            "byteOffset" : 8008
        },
        {
            "buffer" : 0,
            "byteLength" : 48,
            "byteOffset" : 8136
        }
    ],
    "buffers" : [
        {
            "byteLength" : 8184,
            "uri" : "data:application/octet-stream;base64,"
        }
    ]
}
