{
    "asset" : {
        "generator" : "Khronos glTF Blender I/O v1.2.75",
        "version" : "2.0"
    },
    "scene" : 0,
    "scenes" : [
        {
            "name" : "Scene",
            "nodes" : [
                0
            ]
        }
    ],
    "nodes" : [
        {
            "mesh" : 0,
            "name" : "Mobil"
        }
    ],
    "materials" : [
        {
            "doubleSided" : true,
            "emissiveFactor" : [
                0,
                0,
                0
            ],
            "name" : "primary-merah",
            "pbrMetallicRoughness" : {
                "baseColorFactor" : [
                    0.8000000715255737,
                    0,
                    0.005023052450269461,
                    1
                ],
                "metallicFactor" : 0,
                "roughnessFactor" : 0.4000000059604645
            }
        },
        {
            "doubleSided" : true,
            "emissiveFactor" : [
                0,
                0,
                0
            ],
            "name" : "rim",
            "pbrMetallicRoughness" : {
                "baseColorFactor" : [
                    0.09924464672803879,
                    0.09924464672803879,
                    0.09924464672803879,
                    1
                ],
                "metallicFactor" : 0,
                "roughnessFactor" : 1
            }
        },
        {
            "doubleSided" : true,
            "emissiveFactor" : [
                0,
                0,
                0
            ],
            "name" : "secondary-maroon",
            "pbrMetallicRoughness" : {
                "baseColorFactor" : [
                    0.21586060523986816,
                    0,
                    0,
                    1
                ],
                "metallicFactor" : 0,
                "roughnessFactor" : 0.4000000059604645
            }
        },
        {
            "doubleSided" : true,
            "emissiveFactor" : [
                0,
                0,
                0
            ],
            "name" : "biru-kaca",
            "pbrMetallicRoughness" : {
                "baseColorFactor" : [
                    0.08695974946022034,
                    0.6086460947990417,
                    1,
                    1
                ],
                "metallicFactor" : 0,
                "roughnessFactor" : 0.4000000059604645
            }
        },
        {
            "doubleSided" : true,
            "emissiveFactor" : [
                0,
                0,
                0
            ],
            "name" : "hitam-metal",
            "pbrMetallicRoughness" : {
                "baseColorFactor" : [
                    0,
                    0,
                    0,
                    1
                ],
                "metallicFactor" : 1,
                "roughnessFactor" : 0.5
            }
        },
        {
            "doubleSided" : true,
            "emissiveFactor" : [
                0,
                0,
                0
            ],
            "name" : "item-roda",
            "pbrMetallicRoughness" : {
                "baseColorFactor" : [
                    0,
                    0,
                    0,
                    1
                ],
                "metallicFactor" : 0,
                "roughnessFactor" : 1
            }
        },
        {
            "doubleSided" : true,
            "emissiveFactor" : [
                0.9832140207290649,
                1,
                0.07688624411821365
            ],
            "name" : "lampu",
            "pbrMetallicRoughness" : {
                "baseColorFactor" : [
                    0.800000011920929,
                    0.800000011920929,
                    0.800000011920929,
                    1
                ],
                "metallicFactor" : 0,
                "roughnessFactor" : 0.5
            }
        }
    ],
    "meshes" : [
        {
            "name" : "Cube",
            "primitives" : [
                {
                    "attributes" : {
                        "POSITION" : 0,
                        "NORMAL" : 1,
                        "TEXCOORD_0" : 2
                    },
                    "indices" : 3,
                    "material" : 0
                },
                {
                    "attributes" : {
                        "POSITION" : 4,
                        "NORMAL" : 5,
                        "TEXCOORD_0" : 6
                    },
                    "indices" : 7,
                    "material" : 1
                },
                {
                    "attributes" : {
                        "POSITION" : 8,
                        "NORMAL" : 9,
                        "TEXCOORD_0" : 10
                    },
                    "indices" : 11,
                    "material" : 2
                },
                {
                    "attributes" : {
                        "POSITION" : 12,
                        "NORMAL" : 13,
                        "TEXCOORD_0" : 14
                    },
                    "indices" : 15,
                    "material" : 3
                },
                {
                    "attributes" : {
                        "POSITION" : 16,
                        "NORMAL" : 17,
                        "TEXCOORD_0" : 18
                    },
                    "indices" : 19,
                    "material" : 4
                },
                {
                    "attributes" : {
                        "POSITION" : 20,
                        "NORMAL" : 21,
                        "TEXCOORD_0" : 22
                    },
                    "indices" : 23,
                    "material" : 5
                },
                {
                    "attributes" : {
                        "POSITION" : 24,
                        "NORMAL" : 25,
                        "TEXCOORD_0" : 26
                    },
                    "indices" : 27,
                    "material" : 6
                }
            ]
        }
    ],
    "accessors" : [
        {
            "bufferView" : 0,
            "componentType" : 5126,
            "count" : 128,
            "max" : [
                3.6124231815338135,
                2.728703022003174,
                2.0157179832458496
            ],
            "min" : [
                -4.983877658843994,
                0.7287031412124634,
                -2.0157179832458496
            ],
            "type" : "VEC3"
        },
        {
            "bufferView" : 1,
            "componentType" : 5126,
            "count" : 128,
            "type" : "VEC3"
        },
        {
            "bufferView" : 2,
            "componentType" : 5126,
            "count" : 128,
            "type" : "VEC2"
        },
        {
            "bufferView" : 3,
            "componentType" : 5123,
            "count" : 264,
            "type" : "SCALAR"
        },
        {
            "bufferView" : 4,
            "componentType" : 5126,
            "count" : 98,
            "max" : [
                3.6124231815338135,
                2.8321101665496826,
                2.251380205154419
            ],
            "min" : [
                -4.983877658843994,
                0.11130738258361816,
                -2.274510383605957
            ],
            "type" : "VEC3"
        },
        {
            "bufferView" : 5,
            "componentType" : 5126,
            "count" : 98,
            "type" : "VEC3"
        },
        {
            "bufferView" : 6,
            "componentType" : 5126,
            "count" : 98,
            "type" : "VEC2"
        },
        {
            "bufferView" : 7,
            "componentType" : 5123,
            "count" : 210,
            "type" : "SCALAR"
        },
        {
            "bufferView" : 8,
            "componentType" : 5126,
            "count" : 186,
            "max" : [
                1.976287841796875,
                5.001406192779541,
                2.0157179832458496
            ],
            "min" : [
                -1.976287841796875,
                2.728703022003174,
                -2.0157179832458496
            ],
            "type" : "VEC3"
        },
        {
            "bufferView" : 9,
            "componentType" : 5126,
            "count" : 186,
            "type" : "VEC3"
        },
        {
            "bufferView" : 10,
            "componentType" : 5126,
            "count" : 186,
            "type" : "VEC2"
        },
        {
            "bufferView" : 11,
            "componentType" : 5123,
            "count" : 324,
            "type" : "SCALAR"
        },
        {
            "bufferView" : 12,
            "componentType" : 5126,
            "count" : 24,
            "max" : [
                1.8978354930877686,
                4.778898239135742,
                1.9244215488433838
            ],
            "min" : [
                -1.8798774480819702,
                2.9512109756469727,
                -1.8113794326782227
            ],
            "type" : "VEC3"
        },
        {
            "bufferView" : 13,
            "componentType" : 5126,
            "count" : 24,
            "type" : "VEC3"
        },
        {
            "bufferView" : 14,
            "componentType" : 5126,
            "count" : 24,
            "type" : "VEC2"
        },
        {
            "bufferView" : 15,
            "componentType" : 5123,
            "count" : 36,
            "type" : "SCALAR"
        },
        {
            "bufferView" : 16,
            "componentType" : 5126,
            "count" : 216,
            "max" : [
                3.702303886413574,
                2.8321101665496826,
                2.125396251678467
            ],
            "min" : [
                -5.175354957580566,
                0.6783163547515869,
                -2.1403861045837402
            ],
            "type" : "VEC3"
        },
        {
            "bufferView" : 17,
            "componentType" : 5126,
            "count" : 216,
            "type" : "VEC3"
        },
        {
            "bufferView" : 18,
            "componentType" : 5126,
            "count" : 216,
            "type" : "VEC2"
        },
        {
            "bufferView" : 19,
            "componentType" : 5123,
            "count" : 330,
            "type" : "SCALAR"
        },
        {
            "bufferView" : 20,
            "componentType" : 5126,
            "count" : 656,
            "max" : [
                3.5232994556427,
                1.4143067598342896,
                2.3131942749023438
            ],
            "min" : [
                -4.109459400177002,
                -0.08368813991546631,
                -2.3377346992492676
            ],
            "type" : "VEC3"
        },
        {
            "bufferView" : 21,
            "componentType" : 5126,
            "count" : 656,
            "type" : "VEC3"
        },
        {
            "bufferView" : 22,
            "componentType" : 5126,
            "count" : 656,
            "type" : "VEC2"
        },
        {
            "bufferView" : 23,
            "componentType" : 5123,
            "count" : 1152,
            "type" : "SCALAR"
        },
        {
            "bufferView" : 24,
            "componentType" : 5126,
            "count" : 8,
            "max" : [
                -5.117725372314453,
                2.776827573776245,
                1.6433990001678467
            ],
            "min" : [
                -5.122932434082031,
                2.358671188354492,
                -1.6387733221054077
            ],
            "type" : "VEC3"
        },
        {
            "bufferView" : 25,
            "componentType" : 5126,
            "count" : 8,
            "type" : "VEC3"
        },
        {
            "bufferView" : 26,
            "componentType" : 5126,
            "count" : 8,
            "type" : "VEC2"
        },
        {
            "bufferView" : 27,
            "componentType" : 5123,
            "count" : 12,
            "type" : "SCALAR"
        }
    ],
    "bufferViews" : [
        {
            "buffer" : 0,
            "byteLength" : 1536,
            "byteOffset" : 0
        },
        {
            "buffer" : 0,
            "byteLength" : 1536,
            "byteOffset" : 1536
        },
        {
            "buffer" : 0,
            "byteLength" : 1024,
            "byteOffset" : 3072
        },
        {
            "buffer" : 0,
            "byteLength" : 528,
            "byteOffset" : 4096
        },
        {
            "buffer" : 0,
            "byteLength" : 1176,
            "byteOffset" : 4624
        },
        {
            "buffer" : 0,
            "byteLength" : 1176,
            "byteOffset" : 5800
        },
        {
            "buffer" : 0,
            "byteLength" : 784,
            "byteOffset" : 6976
        },
        {
            "buffer" : 0,
            "byteLength" : 420,
            "byteOffset" : 7760
        },
        {
            "buffer" : 0,
            "byteLength" : 2232,
            "byteOffset" : 8180
        },
        {
            "buffer" : 0,
            "byteLength" : 2232,
            "byteOffset" : 10412
        },
        {
            "buffer" : 0,
            "byteLength" : 1488,
            "byteOffset" : 12644
        },
        {
            "buffer" : 0,
            "byteLength" : 648,
            "byteOffset" : 14132
        },
        {
            "buffer" : 0,
            "byteLength" : 288,
            "byteOffset" : 14780
        },
        {
            "buffer" : 0,
            "byteLength" : 288,
            "byteOffset" : 15068
        },
        {
            "buffer" : 0,
            "byteLength" : 192,
            "byteOffset" : 15356
        },
        {
            "buffer" : 0,
            "byteLength" : 72,
            "byteOffset" : 15548
        },
        {
            "buffer" : 0,
            "byteLength" : 2592,
            "byteOffset" : 15620
        },
        {
            "buffer" : 0,
            "byteLength" : 2592,
            "byteOffset" : 18212
        },
        {
            "buffer" : 0,
            "byteLength" : 1728,
            "byteOffset" : 20804
        },
        {
            "buffer" : 0,
            "byteLength" : 660,
            "byteOffset" : 22532
        },
        {
            "buffer" : 0,
            "byteLength" : 7872,
            "byteOffset" : 23192
        },
        {
            "buffer" : 0,
            "byteLength" : 7872,
            "byteOffset" : 31064
        },
        {
            "buffer" : 0,
            "byteLength" : 5248,
            "byteOffset" : 38936
        },
        {
            "buffer" : 0,
            "byteLength" : 2304,
            "byteOffset" : 44184
        },
        {
            "buffer" : 0,
            "byteLength" : 96,
            "byteOffset" : 46488
        },
        {
            "buffer" : 0,
            "byteLength" : 96,
            "byteOffset" : 46584
        },
        {
            "buffer" : 0,
            "byteLength" : 64,
            "byteOffset" : 46680
        },
        {
            "buffer" : 0,
            "byteLength" : 24,
            "byteOffset" : 46744
        }
    ],
    "buffers" : [
        {
            "byteLength" : 46768,
            "uri" : "data:application/octet-stream;base64,"
        }
    ]
}
