{
    "asset" : {
        "generator" : "Khronos glTF Blender I/O v1.3.48",
        "version" : "2.0"
    },
    "extensionsUsed" : [
        "KHR_lights_punctual"
    ],
    "extensionsRequired" : [
        "KHR_lights_punctual"
    ],
    "extensions" : {
        "KHR_lights_punctual" : {
            "lights" : [
                {
                    "color" : [
                        1,
                        1,
                        1
                    ],
                    "intensity" : 50.49993896484375,
                    "spot" : {
                        "innerConeAngle" : 1.2631146122786685,
                        "outerConeAngle" : 1.5707963705062866
                    },
                    "type" : "spot",
                    "range" : 13.1300048828125,
                    "name" : "Spot"
                }
            ]
        }
    },
    "scene" : 0,
    "scenes" : [
        {
            "name" : "Lamps",
            "nodes" : [
                0,
                1,
                3
            ]
        }
    ],
    "nodes" : [
        {
            "mesh" : 0,
            "name" : "Cube",
            "rotation" : [
                0,
                0.7071068286895752,
                0,
                -0.7071068286895752
            ],
            "translation" : [
                0,
                0.9139650464057922,
                0
            ]
        },
        {
            "mesh" : 1,
            "name" : "Cube.001",
            "rotation" : [
                0,
                0.7071068286895752,
                0,
                0.7071068286895752
            ],
            "scale" : [
                0.3743519186973572,
                0.3743519186973572,
                0.3743519186973572
            ],
            "translation" : [
                0.031887639313936234,
                10.84749698638916,
                3.062589168548584
            ]
        },
        {
            "extensions" : {
                "KHR_lights_punctual" : {
                    "light" : 0
                }
            },
            "name" : "Spot_Orientation",
            "rotation" : [
                -0.7071067690849304,
                0,
                0,
                0.7071067690849304
            ]
        },
        {
            "children" : [
                2
            ],
            "name" : "Spot",
            "translation" : [
                0.0977097600698471,
                11.054015159606934,
                3.062589168548584
            ]
        }
    ],
    "materials" : [
        {
            "doubleSided" : true,
            "emissiveFactor" : [
                0,
                0,
                0
            ],
            "name" : "Material.001",
            "pbrMetallicRoughness" : {
                "baseColorFactor" : [
                    0.41156846284866333,
                    0.10775381326675415,
                    0.03666827455163002,
                    1
                ],
                "metallicFactor" : 0,
                "roughnessFactor" : 0.5
            }
        },
        {
            "doubleSided" : true,
            "emissiveFactor" : [
                0,
                0,
                0
            ],
            "name" : "Material.002",
            "pbrMetallicRoughness" : {
                "baseColorFactor" : [
                    1,
                    1,
                    1,
                    1
                ],
                "metallicFactor" : 0,
                "roughnessFactor" : 0.5
            }
        }
    ],
    "meshes" : [
        {
            "name" : "Cube.001",
            "primitives" : [
                {
                    "attributes" : {
                        "POSITION" : 0,
                        "NORMAL" : 1,
                        "TEXCOORD_0" : 2
                    },
                    "indices" : 3,
                    "material" : 0
                }
            ]
        },
        {
            "name" : "Cube.002",
            "primitives" : [
                {
                    "attributes" : {
                        "POSITION" : 4,
                        "NORMAL" : 5,
                        "TEXCOORD_0" : 6
                    },
                    "indices" : 7,
                    "material" : 1
                }
            ]
        }
    ],
    "accessors" : [
        {
            "bufferView" : 0,
            "componentType" : 5126,
            "count" : 1467,
            "max" : [
                3.57865571975708,
                11.1705904006958,
                0.5224852561950684
            ],
            "min" : [
                -0.6340479850769043,
                -0.9631535410881042,
                -0.5305513143539429
            ],
            "type" : "VEC3"
        },
        {
            "bufferView" : 1,
            "componentType" : 5126,
            "count" : 1467,
            "type" : "VEC3"
        },
        {
            "bufferView" : 2,
            "componentType" : 5126,
            "count" : 1467,
            "type" : "VEC2"
        },
        {
            "bufferView" : 3,
            "componentType" : 5123,
            "count" : 3252,
            "type" : "SCALAR"
        },
        {
            "bufferView" : 4,
            "componentType" : 5126,
            "count" : 24,
            "max" : [
                1,
                1,
                1
            ],
            "min" : [
                -1,
                -1.7557952404022217,
                -1
            ],
            "type" : "VEC3"
        },
        {
            "bufferView" : 5,
            "componentType" : 5126,
            "count" : 24,
            "type" : "VEC3"
        },
        {
            "bufferView" : 6,
            "componentType" : 5126,
            "count" : 24,
            "type" : "VEC2"
        },
        {
            "bufferView" : 7,
            "componentType" : 5123,
            "count" : 36,
            "type" : "SCALAR"
        }
    ],
    "bufferViews" : [
        {
            "buffer" : 0,
            "byteLength" : 17604,
            "byteOffset" : 0
        },
        {
            "buffer" : 0,
            "byteLength" : 17604,
            "byteOffset" : 17604
        },
        {
            "buffer" : 0,
            "byteLength" : 11736,
            "byteOffset" : 35208
        },
        {
            "buffer" : 0,
            "byteLength" : 6504,
            "byteOffset" : 46944
        },
        {
            "buffer" : 0,
            "byteLength" : 288,
            "byteOffset" : 53448
        },
        {
            "buffer" : 0,
            "byteLength" : 288,
            "byteOffset" : 53736
        },
        {
            "buffer" : 0,
            "byteLength" : 192,
            "byteOffset" : 54024
        },
        {
            "buffer" : 0,
            "byteLength" : 72,
            "byteOffset" : 54216
        }
    ],
    "buffers" : [
        {
            "byteLength" : 54288,
            "uri" : "data:application/octet-stream;base64,"
        }
    ]
}
