{
    "asset" : {
        "generator" : "Khronos glTF Blender I/O v1.2.75",
        "version" : "2.0"
    },
    "scene" : 0,
    "scenes" : [
        {
            "name" : "Scene",
            "nodes" : [
                0,
                1,
                2
            ]
        }
    ],
    "nodes" : [
        {
            "mesh" : 0,
            "name" : "Cube.001",
            "translation" : [
                0,
                4.738409042358398,
                0
            ]
        },
        {
            "mesh" : 1,
            "name" : "Cube",
            "translation" : [
                0,
                6.685886859893799,
                0
            ]
        },
        {
            "mesh" : 2,
            "name" : "Cylinder",
            "rotation" : [
                0,
                0,
                -0.7071067690849304,
                0.7071067690849304
            ]
        }
    ],
    "materials" : [
        {
            "doubleSided" : true,
            "emissiveFactor" : [
                0,
                0,
                0
            ],
            "name" : "Material",
            "pbrMetallicRoughness" : {
                "baseColorFactor" : [
                    0.026010600849986076,
                    0.026010600849986076,
                    0.026010600849986076,
                    1
                ],
                "metallicFactor" : 0,
                "roughnessFactor" : 1
            }
        },
        {
            "doubleSided" : true,
            "emissiveFactor" : [
                0,
                0,
                0
            ],
            "name" : "Material.001",
            "pbrMetallicRoughness" : {
                "baseColorFactor" : [
                    0.08874329924583435,
                    0.08874329924583435,
                    0.08874329924583435,
                    1
                ],
                "metallicFactor" : 0,
                "roughnessFactor" : 1
            }
        },
        {
            "doubleSided" : true,
            "emissiveFactor" : [
                1,
                1,
                1
            ],
            "name" : "Material.002",
            "pbrMetallicRoughness" : {
                "baseColorFactor" : [
                    0.9411764740943909,
                    0.8844224810600281,
                    1,
                    1
                ],
                "metallicFactor" : 1,
                "roughnessFactor" : 1
            }
        },
        {
            "doubleSided" : true,
            "emissiveFactor" : [
                0,
                0,
                0
            ],
            "name" : "Material.003",
            "pbrMetallicRoughness" : {
                "baseColorFactor" : [
                    0.8000000715255737,
                    0.004563082940876484,
                    0,
                    1
                ],
                "metallicFactor" : 0,
                "roughnessFactor" : 1
            }
        }
    ],
    "meshes" : [
        {
            "name" : "Cube.001",
            "primitives" : [
                {
                    "attributes" : {
                        "POSITION" : 0,
                        "NORMAL" : 1,
                        "TEXCOORD_0" : 2
                    },
                    "indices" : 3,
                    "material" : 0
                }
            ]
        },
        {
            "name" : "Cube.002",
            "primitives" : [
                {
                    "attributes" : {
                        "POSITION" : 4,
                        "NORMAL" : 5,
                        "TEXCOORD_0" : 6
                    },
                    "indices" : 7,
                    "material" : 1
                },
                {
                    "attributes" : {
                        "POSITION" : 8,
                        "NORMAL" : 9,
                        "TEXCOORD_0" : 10
                    },
                    "indices" : 11,
                    "material" : 2
                }
            ]
        },
        {
            "name" : "Cylinder",
            "primitives" : [
                {
                    "attributes" : {
                        "POSITION" : 12,
                        "NORMAL" : 13,
                        "TEXCOORD_0" : 14
                    },
                    "indices" : 15,
                    "material" : 3
                },
                {
                    "attributes" : {
                        "POSITION" : 16,
                        "NORMAL" : 17,
                        "TEXCOORD_0" : 18
                    },
                    "indices" : 19,
                    "material" : 1
                }
            ]
        }
    ],
    "accessors" : [
        {
            "bufferView" : 0,
            "componentType" : 5126,
            "count" : 24,
            "max" : [
                1,
                1,
                0.5593098998069763
            ],
            "min" : [
                -1,
                -3.7780604362487793,
                -0.5747159719467163
            ],
            "type" : "VEC3"
        },
        {
            "bufferView" : 1,
            "componentType" : 5126,
            "count" : 24,
            "type" : "VEC3"
        },
        {
            "bufferView" : 2,
            "componentType" : 5126,
            "count" : 24,
            "type" : "VEC2"
        },
        {
            "bufferView" : 3,
            "componentType" : 5123,
            "count" : 36,
            "type" : "SCALAR"
        },
        {
            "bufferView" : 4,
            "componentType" : 5126,
            "count" : 1583,
            "max" : [
                1.4987930059432983,
                1,
                0.8101838827133179
            ],
            "min" : [
                -1.5009994506835938,
                -1,
                -0.7144339084625244
            ],
            "type" : "VEC3"
        },
        {
            "bufferView" : 5,
            "componentType" : 5126,
            "count" : 1583,
            "type" : "VEC3"
        },
        {
            "bufferView" : 6,
            "componentType" : 5126,
            "count" : 1583,
            "type" : "VEC2"
        },
        {
            "bufferView" : 7,
            "componentType" : 5123,
            "count" : 2826,
            "type" : "SCALAR"
        },
        {
            "bufferView" : 8,
            "componentType" : 5126,
            "count" : 124,
            "max" : [
                0.2530919015407562,
                0.18930841982364655,
                0.6136369705200195
            ],
            "min" : [
                -0.253093421459198,
                -0.3168768882751465,
                0.6136367321014404
            ],
            "type" : "VEC3"
        },
        {
            "bufferView" : 9,
            "componentType" : 5126,
            "count" : 124,
            "type" : "VEC3"
        },
        {
            "bufferView" : 10,
            "componentType" : 5126,
            "count" : 124,
            "type" : "VEC2"
        },
        {
            "bufferView" : 11,
            "componentType" : 5123,
            "count" : 366,
            "type" : "SCALAR"
        },
        {
            "bufferView" : 12,
            "componentType" : 5126,
            "count" : 620,
            "max" : [
                -4.416854381561279,
                1.288286805152893,
                0.334384560585022
            ],
            "min" : [
                -5.085623741149902,
                1.178727149963379,
                -0.334384560585022
            ],
            "type" : "VEC3"
        },
        {
            "bufferView" : 13,
            "componentType" : 5126,
            "count" : 620,
            "type" : "VEC3"
        },
        {
            "bufferView" : 14,
            "componentType" : 5126,
            "count" : 620,
            "type" : "VEC2"
        },
        {
            "bufferView" : 15,
            "componentType" : 5123,
            "count" : 1110,
            "type" : "SCALAR"
        },
        {
            "bufferView" : 16,
            "componentType" : 5126,
            "count" : 944,
            "max" : [
                -4.321238994598389,
                1.178727149963379,
                0.4300000071525574
            ],
            "min" : [
                -5.181239128112793,
                0.34576836228370667,
                -0.4300000071525574
            ],
            "type" : "VEC3"
        },
        {
            "bufferView" : 17,
            "componentType" : 5126,
            "count" : 944,
            "type" : "VEC3"
        },
        {
            "bufferView" : 18,
            "componentType" : 5126,
            "count" : 944,
            "type" : "VEC2"
        },
        {
            "bufferView" : 19,
            "componentType" : 5123,
            "count" : 1854,
            "type" : "SCALAR"
        }
    ],
    "bufferViews" : [
        {
            "buffer" : 0,
            "byteLength" : 288,
            "byteOffset" : 0
        },
        {
            "buffer" : 0,
            "byteLength" : 288,
            "byteOffset" : 288
        },
        {
            "buffer" : 0,
            "byteLength" : 192,
            "byteOffset" : 576
        },
        {
            "buffer" : 0,
            "byteLength" : 72,
            "byteOffset" : 768
        },
        {
            "buffer" : 0,
            "byteLength" : 18996,
            "byteOffset" : 840
        },
        {
            "buffer" : 0,
            "byteLength" : 18996,
            "byteOffset" : 19836
        },
        {
            "buffer" : 0,
            "byteLength" : 12664,
            "byteOffset" : 38832
        },
        {
            "buffer" : 0,
            "byteLength" : 5652,
            "byteOffset" : 51496
        },
        {
            "buffer" : 0,
            "byteLength" : 1488,
            "byteOffset" : 57148
        },
        {
            "buffer" : 0,
            "byteLength" : 1488,
            "byteOffset" : 58636
        },
        {
            "buffer" : 0,
            "byteLength" : 992,
            "byteOffset" : 60124
        },
        {
            "buffer" : 0,
            "byteLength" : 732,
            "byteOffset" : 61116
        },
        {
            "buffer" : 0,
            "byteLength" : 7440,
            "byteOffset" : 61848
        },
        {
            "buffer" : 0,
            "byteLength" : 7440,
            "byteOffset" : 69288
        },
        {
            "buffer" : 0,
            "byteLength" : 4960,
            "byteOffset" : 76728
        },
        {
            "buffer" : 0,
            "byteLength" : 2220,
            "byteOffset" : 81688
        },
        {
            "buffer" : 0,
            "byteLength" : 11328,
            "byteOffset" : 83908
        },
        {
            "buffer" : 0,
            "byteLength" : 11328,
            "byteOffset" : 95236
        },
        {
            "buffer" : 0,
            "byteLength" : 7552,
            "byteOffset" : 106564
        },
        {
            "buffer" : 0,
            "byteLength" : 3708,
            "byteOffset" : 114116
        }
    ],
    "buffers" : [
        {
            "byteLength" : 117824,
            "uri" : "data:application/octet-stream;base64,"
        }
    ]
}
